<svg xmlns="http://www.w3.org/2000/svg" width="96" height="96" viewBox="0 0 96 96" version="1.1"><path d="M 37 19.500 C 37 19.775, 37.225 20, 37.500 20 C 37.775 20, 38 19.775, 38 19.500 C 38 19.225, 37.775 19, 37.500 19 C 37.225 19, 37 19.225, 37 19.500 M 37 76.500 C 37 76.775, 37.225 77, 37.500 77 C 37.775 77, 38 76.775, 38 76.500 C 38 76.225, 37.775 76, 37.500 76 C 37.225 76, 37 76.225, 37 76.500" stroke="none" fill="#4074f4" fill-rule="evenodd"/><path d="M 39.574 13.918 C 36.342 17.490, 37.363 20.511, 46.375 34.040 C 51.119 41.161, 55 47.443, 55 48 C 55 48.557, 51.119 54.839, 46.375 61.960 C 41.118 69.852, 37.750 75.915, 37.750 77.487 C 37.750 81.509, 40.762 84.150, 44.949 83.799 C 48.342 83.513, 49.001 82.752, 59.750 66.712 C 65.938 57.479, 71 49.059, 71 48 C 71 46.941, 65.938 38.521, 59.750 29.288 C 49.001 13.248, 48.342 12.487, 44.949 12.201 C 42.394 11.987, 40.886 12.468, 39.574 13.918" stroke="none" fill="#3c74f4" fill-rule="evenodd"/></svg>