<svg xmlns="http://www.w3.org/2000/svg" width="96" height="96" viewBox="0 0 96 96" version="1.1"><path d="" stroke="none" fill="#4074f4" fill-rule="evenodd"/><path d="M 50.772 13.750 C 46.906 18.147, 29 46.342, 29 48.031 C 29 49.073, 34.063 57.479, 40.250 66.712 C 50.999 82.752, 51.658 83.513, 55.051 83.799 C 57.497 84.004, 59.094 83.537, 60.183 82.299 C 63.848 78.128, 63.437 76.813, 54.029 62.599 C 49.063 55.096, 45 48.526, 45 48 C 45 47.474, 49.063 40.904, 54.029 33.401 C 63.416 19.219, 63.843 17.868, 60.227 13.750 C 59.366 12.770, 57.286 12, 55.500 12 C 53.715 12, 51.633 12.771, 50.772 13.750" stroke="none" fill="#3c74f4" fill-rule="evenodd"/></svg>